# xmcd
#
# Track frame offsets: 
#        150
#        14442
#        29869
#        56764
#        73859
#        93267
#        106818
#
# Disc length: 1596 seconds
#
# Revision: 0
# Processed by: cddbd v1.5.2PL0 Copyright (c) Steve Scherf et al.
# Submitted via: ExactAudioCopy v0.99pb4
#
DISCID=5e063a07
DTITLE=Payola$ - Langford Part One
DYEAR=2007
DGENRE=rock
TTITLE0=Bomb
TTITLE1=Revolution
TTITLE2=Phone Hell
TTITLE3=We Are Failing
TTITLE4=At The Angel's Feet
TTITLE5=Goodbye To Rock N Roll
TTITLE6=Revolution Jam-Up
EXTD=
EXTT0=
EXTT1=
EXTT2=
EXTT3=
EXTT4=
EXTT5=
EXTT6=
PLAYORDER=
